<svg xmlns="http://www.w3.org/2000/svg" version="1.1" width="180mm" height="25mm" viewBox="0 0 100 1" preserveAspectRatio="none" shape-rendering="crispEdges" stroke="none">
<rect width="1" height=".96" x="0" y="0" fill="#FFFFFE"></rect>
<rect width="1" height=".96" x="1" y="0" fill="#FBFDFE"></rect>
<rect width="1" height=".96" x="2" y="0" fill="#F7FBFE"></rect>
<rect width="1" height=".96" x="3" y="0" fill="#F3F9FE"></rect>
<rect width="1" height=".96" x="4" y="0" fill="#EEF7FE"></rect>
<rect width="1" height=".96" x="5" y="0" fill="#EAF5FE"></rect>
<rect width="1" height=".96" x="6" y="0" fill="#E6F2FE"></rect>
<rect width="1" height=".96" x="7" y="0" fill="#E2F0FE"></rect>
<rect width="1" height=".96" x="8" y="0" fill="#DEEEFE"></rect>
<rect width="1" height=".96" x="9" y="0" fill="#DAECFE"></rect>
<rect width="1" height=".96" x="10" y="0" fill="#D6EAFE"></rect>
<rect width="1" height=".96" x="11" y="0" fill="#D1E8FE"></rect>
<rect width="1" height=".96" x="12" y="0" fill="#CDE6FE"></rect>
<rect width="1" height=".96" x="13" y="0" fill="#C9E4FE"></rect>
<rect width="1" height=".96" x="14" y="0" fill="#C5E2FE"></rect>
<rect width="1" height=".96" x="15" y="0" fill="#C1E0FE"></rect>
<rect width="1" height=".96" x="16" y="0" fill="#BDDEFE"></rect>
<rect width="1" height=".96" x="17" y="0" fill="#B9DBFE"></rect>
<rect width="1" height=".96" x="18" y="0" fill="#B4D9FE"></rect>
<rect width="1" height=".96" x="19" y="0" fill="#B0D7FE"></rect>
<rect width="1" height=".96" x="20" y="0" fill="#ACD5FE"></rect>
<rect width="1" height=".96" x="21" y="0" fill="#A8D3FE"></rect>
<rect width="1" height=".96" x="22" y="0" fill="#A4D1FE"></rect>
<rect width="1" height=".96" x="23" y="0" fill="#A0CFFE"></rect>
<rect width="1" height=".96" x="24" y="0" fill="#9CCDFE"></rect>
<rect width="1" height=".96" x="25" y="0" fill="#99CCFC"></rect>
<rect width="1" height=".96" x="26" y="0" fill="#9ECEF6"></rect>
<rect width="1" height=".96" x="27" y="0" fill="#A2D0F0"></rect>
<rect width="1" height=".96" x="28" y="0" fill="#A6D2EA"></rect>
<rect width="1" height=".96" x="29" y="0" fill="#AAD4E4"></rect>
<rect width="1" height=".96" x="30" y="0" fill="#AED6DE"></rect>
<rect width="1" height=".96" x="31" y="0" fill="#B2D8D8"></rect>
<rect width="1" height=".96" x="32" y="0" fill="#B6DAD1"></rect>
<rect width="1" height=".96" x="33" y="0" fill="#BADCCB"></rect>
<rect width="1" height=".96" x="34" y="0" fill="#BEDEC5"></rect>
<rect width="1" height=".96" x="35" y="0" fill="#C2E0BF"></rect>
<rect width="1" height=".96" x="36" y="0" fill="#C7E2B9"></rect>
<rect width="1" height=".96" x="37" y="0" fill="#CBE4B3"></rect>
<rect width="1" height=".96" x="38" y="0" fill="#CFE6AC"></rect>
<rect width="1" height=".96" x="39" y="0" fill="#D3E8A6"></rect>
<rect width="1" height=".96" x="40" y="0" fill="#D7EBA0"></rect>
<rect width="1" height=".96" x="41" y="0" fill="#DBED9A"></rect>
<rect width="1" height=".96" x="42" y="0" fill="#DFEF94"></rect>
<rect width="1" height=".96" x="43" y="0" fill="#E3F18E"></rect>
<rect width="1" height=".96" x="44" y="0" fill="#E7F387"></rect>
<rect width="1" height=".96" x="45" y="0" fill="#ECF581"></rect>
<rect width="1" height=".96" x="46" y="0" fill="#F0F77B"></rect>
<rect width="1" height=".96" x="47" y="0" fill="#F4F975"></rect>
<rect width="1" height=".96" x="48" y="0" fill="#F8FB6F"></rect>
<rect width="1" height=".96" x="49" y="0" fill="#FCFD69"></rect>
<rect width="1" height=".96" x="50" y="0" fill="#FDFB64"></rect>
<rect width="1" height=".96" x="51" y="0" fill="#FBF55F"></rect>
<rect width="1" height=".96" x="52" y="0" fill="#F9EF5B"></rect>
<rect width="1" height=".96" x="53" y="0" fill="#F7E857"></rect>
<rect width="1" height=".96" x="54" y="0" fill="#F5E253"></rect>
<rect width="1" height=".96" x="55" y="0" fill="#F3DC4F"></rect>
<rect width="1" height=".96" x="56" y="0" fill="#F1D64B"></rect>
<rect width="1" height=".96" x="57" y="0" fill="#EFD047"></rect>
<rect width="1" height=".96" x="58" y="0" fill="#EDCA43"></rect>
<rect width="1" height=".96" x="59" y="0" fill="#EBC43F"></rect>
<rect width="1" height=".96" x="60" y="0" fill="#E8BD3A"></rect>
<rect width="1" height=".96" x="61" y="0" fill="#E6B736"></rect>
<rect width="1" height=".96" x="62" y="0" fill="#E4B132"></rect>
<rect width="1" height=".96" x="63" y="0" fill="#E2AB2E"></rect>
<rect width="1" height=".96" x="64" y="0" fill="#E0A52A"></rect>
<rect width="1" height=".96" x="65" y="0" fill="#DE9F26"></rect>
<rect width="1" height=".96" x="66" y="0" fill="#DC9822"></rect>
<rect width="1" height=".96" x="67" y="0" fill="#DA921E"></rect>
<rect width="1" height=".96" x="68" y="0" fill="#D88C1A"></rect>
<rect width="1" height=".96" x="69" y="0" fill="#D68616"></rect>
<rect width="1" height=".96" x="70" y="0" fill="#D48011"></rect>
<rect width="1" height=".96" x="71" y="0" fill="#D27A0D"></rect>
<rect width="1" height=".96" x="72" y="0" fill="#D07309"></rect>
<rect width="1" height=".96" x="73" y="0" fill="#CE6D05"></rect>
<rect width="1" height=".96" x="74" y="0" fill="#CC6701"></rect>
<rect width="1" height=".96" x="75" y="0" fill="#C86300"></rect>
<rect width="1" height=".96" x="76" y="0" fill="#C45E00"></rect>
<rect width="1" height=".96" x="77" y="0" fill="#C05A00"></rect>
<rect width="1" height=".96" x="78" y="0" fill="#BC5600"></rect>
<rect width="1" height=".96" x="79" y="0" fill="#B85200"></rect>
<rect width="1" height=".96" x="80" y="0" fill="#B44E00"></rect>
<rect width="1" height=".96" x="81" y="0" fill="#AF4A00"></rect>
<rect width="1" height=".96" x="82" y="0" fill="#AB4600"></rect>
<rect width="1" height=".96" x="83" y="0" fill="#A74200"></rect>
<rect width="1" height=".96" x="84" y="0" fill="#A33E00"></rect>
<rect width="1" height=".96" x="85" y="0" fill="#9F3900"></rect>
<rect width="1" height=".96" x="86" y="0" fill="#9B3500"></rect>
<rect width="1" height=".96" x="87" y="0" fill="#973100"></rect>
<rect width="1" height=".96" x="88" y="0" fill="#932D00"></rect>
<rect width="1" height=".96" x="89" y="0" fill="#8F2900"></rect>
<rect width="1" height=".96" x="90" y="0" fill="#8B2500"></rect>
<rect width="1" height=".96" x="91" y="0" fill="#862100"></rect>
<rect width="1" height=".96" x="92" y="0" fill="#821D00"></rect>
<rect width="1" height=".96" x="93" y="0" fill="#7E1900"></rect>
<rect width="1" height=".96" x="94" y="0" fill="#7A1500"></rect>
<rect width="1" height=".96" x="95" y="0" fill="#761000"></rect>
<rect width="1" height=".96" x="96" y="0" fill="#720C00"></rect>
<rect width="1" height=".96" x="97" y="0" fill="#6E0800"></rect>
<rect width="1" height=".96" x="98" y="0" fill="#6A0400"></rect>
<rect width="1" height=".96" x="99" y="0" fill="#660000"></rect>
</svg>