<svg xmlns="http://www.w3.org/2000/svg" version="1.1" width="180mm" height="25mm" viewBox="0 0 100 1" preserveAspectRatio="none" shape-rendering="crispEdges" stroke="none">
<rect width="1" height=".96" x="0" y="0" fill="#FFFFFF"></rect>
<rect width="1" height=".96" x="1" y="0" fill="#FFFFFE"></rect>
<rect width="1" height=".96" x="2" y="0" fill="#FEFFFE"></rect>
<rect width="1" height=".96" x="3" y="0" fill="#FDFFFD"></rect>
<rect width="1" height=".96" x="4" y="0" fill="#FBFFFC"></rect>
<rect width="1" height=".96" x="5" y="0" fill="#F8FFFB"></rect>
<rect width="1" height=".96" x="6" y="0" fill="#F5FDFA"></rect>
<rect width="1" height=".96" x="7" y="0" fill="#F2FAF8"></rect>
<rect width="1" height=".96" x="8" y="0" fill="#EEF7F7"></rect>
<rect width="1" height=".96" x="9" y="0" fill="#EAF3F5"></rect>
<rect width="1" height=".96" x="10" y="0" fill="#E5F0F3"></rect>
<rect width="1" height=".96" x="11" y="0" fill="#DFECF0"></rect>
<rect width="1" height=".96" x="12" y="0" fill="#D9E8EE"></rect>
<rect width="1" height=".96" x="13" y="0" fill="#D3E4EB"></rect>
<rect width="1" height=".96" x="14" y="0" fill="#CDE0E8"></rect>
<rect width="1" height=".96" x="15" y="0" fill="#C6DCE5"></rect>
<rect width="1" height=".96" x="16" y="0" fill="#BFD8E2"></rect>
<rect width="1" height=".96" x="17" y="0" fill="#B9D5DF"></rect>
<rect width="1" height=".96" x="18" y="0" fill="#B2D1DC"></rect>
<rect width="1" height=".96" x="19" y="0" fill="#ABCED8"></rect>
<rect width="1" height=".96" x="20" y="0" fill="#A4CCD5"></rect>
<rect width="1" height=".96" x="21" y="0" fill="#9EC9D2"></rect>
<rect width="1" height=".96" x="22" y="0" fill="#98C7CE"></rect>
<rect width="1" height=".96" x="23" y="0" fill="#92C6CB"></rect>
<rect width="1" height=".96" x="24" y="0" fill="#8DC4C7"></rect>
<rect width="1" height=".96" x="25" y="0" fill="#88C3C4"></rect>
<rect width="1" height=".96" x="26" y="0" fill="#84C3C0"></rect>
<rect width="1" height=".96" x="27" y="0" fill="#81C3BD"></rect>
<rect width="1" height=".96" x="28" y="0" fill="#7EC3B9"></rect>
<rect width="1" height=".96" x="29" y="0" fill="#7CC3B6"></rect>
<rect width="1" height=".96" x="30" y="0" fill="#7AC4B3"></rect>
<rect width="1" height=".96" x="31" y="0" fill="#7AC5AF"></rect>
<rect width="1" height=".96" x="32" y="0" fill="#7AC6AC"></rect>
<rect width="1" height=".96" x="33" y="0" fill="#7BC8A9"></rect>
<rect width="1" height=".96" x="34" y="0" fill="#7DCAA6"></rect>
<rect width="1" height=".96" x="35" y="0" fill="#7FCCA3"></rect>
<rect width="1" height=".96" x="36" y="0" fill="#83CEA0"></rect>
<rect width="1" height=".96" x="37" y="0" fill="#87D09E"></rect>
<rect width="1" height=".96" x="38" y="0" fill="#8BD39B"></rect>
<rect width="1" height=".96" x="39" y="0" fill="#90D598"></rect>
<rect width="1" height=".96" x="40" y="0" fill="#96D896"></rect>
<rect width="1" height=".96" x="41" y="0" fill="#9CDA94"></rect>
<rect width="1" height=".96" x="42" y="0" fill="#A3DD91"></rect>
<rect width="1" height=".96" x="43" y="0" fill="#AADF8F"></rect>
<rect width="1" height=".96" x="44" y="0" fill="#B1E28D"></rect>
<rect width="1" height=".96" x="45" y="0" fill="#B8E48B"></rect>
<rect width="1" height=".96" x="46" y="0" fill="#C0E689"></rect>
<rect width="1" height=".96" x="47" y="0" fill="#C7E887"></rect>
<rect width="1" height=".96" x="48" y="0" fill="#CEEA85"></rect>
<rect width="1" height=".96" x="49" y="0" fill="#D5EB83"></rect>
<rect width="1" height=".96" x="50" y="0" fill="#DCEC81"></rect>
<rect width="1" height=".96" x="51" y="0" fill="#E3ED7F"></rect>
<rect width="1" height=".96" x="52" y="0" fill="#E9EE7D"></rect>
<rect width="1" height=".96" x="53" y="0" fill="#EFED7B"></rect>
<rect width="1" height=".96" x="54" y="0" fill="#F4ED79"></rect>
<rect width="1" height=".96" x="55" y="0" fill="#F9EC77"></rect>
<rect width="1" height=".96" x="56" y="0" fill="#FDEB75"></rect>
<rect width="1" height=".96" x="57" y="0" fill="#FFE973"></rect>
<rect width="1" height=".96" x="58" y="0" fill="#FFE671"></rect>
<rect width="1" height=".96" x="59" y="0" fill="#FFE36E"></rect>
<rect width="1" height=".96" x="60" y="0" fill="#FFDF6C"></rect>
<rect width="1" height=".96" x="61" y="0" fill="#FFDB69"></rect>
<rect width="1" height=".96" x="62" y="0" fill="#FFD666"></rect>
<rect width="1" height=".96" x="63" y="0" fill="#FFD163"></rect>
<rect width="1" height=".96" x="64" y="0" fill="#FFCB60"></rect>
<rect width="1" height=".96" x="65" y="0" fill="#FFC45D"></rect>
<rect width="1" height=".96" x="66" y="0" fill="#FFBE5A"></rect>
<rect width="1" height=".96" x="67" y="0" fill="#FFB656"></rect>
<rect width="1" height=".96" x="68" y="0" fill="#FFAD52"></rect>
<rect width="1" height=".96" x="69" y="0" fill="#FFA54E"></rect>
<rect width="1" height=".96" x="70" y="0" fill="#FF9B4A"></rect>
<rect width="1" height=".96" x="71" y="0" fill="#FF9245"></rect>
<rect width="1" height=".96" x="72" y="0" fill="#FD8741"></rect>
<rect width="1" height=".96" x="73" y="0" fill="#FC7D3C"></rect>
<rect width="1" height=".96" x="74" y="0" fill="#FA7237"></rect>
<rect width="1" height=".96" x="75" y="0" fill="#F96632"></rect>
<rect width="1" height=".96" x="76" y="0" fill="#F95B2D"></rect>
<rect width="1" height=".96" x="77" y="0" fill="#F84F28"></rect>
<rect width="1" height=".96" x="78" y="0" fill="#F94322"></rect>
<rect width="1" height=".96" x="79" y="0" fill="#F9371D"></rect>
<rect width="1" height=".96" x="80" y="0" fill="#FA2C17"></rect>
<rect width="1" height=".96" x="81" y="0" fill="#FB2012"></rect>
<rect width="1" height=".96" x="82" y="0" fill="#FC150C"></rect>
<rect width="1" height=".96" x="83" y="0" fill="#FD0A07"></rect>
<rect width="1" height=".96" x="84" y="0" fill="#FE0303"></rect>
<rect width="1" height=".96" x="85" y="0" fill="#FF0000"></rect>
<rect width="1" height=".96" x="86" y="0" fill="#FF0000"></rect>
<rect width="1" height=".96" x="87" y="0" fill="#FF0000"></rect>
<rect width="1" height=".96" x="88" y="0" fill="#FF0000"></rect>
<rect width="1" height=".96" x="89" y="0" fill="#FD0000"></rect>
<rect width="1" height=".96" x="90" y="0" fill="#FA0000"></rect>
<rect width="1" height=".96" x="91" y="0" fill="#F50000"></rect>
<rect width="1" height=".96" x="92" y="0" fill="#EF0000"></rect>
<rect width="1" height=".96" x="93" y="0" fill="#E80000"></rect>
<rect width="1" height=".96" x="94" y="0" fill="#DE0000"></rect>
<rect width="1" height=".96" x="95" y="0" fill="#D30000"></rect>
<rect width="1" height=".96" x="96" y="0" fill="#C70000"></rect>
<rect width="1" height=".96" x="97" y="0" fill="#B80000"></rect>
<rect width="1" height=".96" x="98" y="0" fill="#A90100"></rect>
<rect width="1" height=".96" x="99" y="0" fill="#990200"></rect>
</svg>